<?xml version="1.0" standalone="no"?>
<!DOCTYPE svg PUBLIC "-//W3C//DTD SVG 20010904//EN"
 "http://www.w3.org/TR/2001/REC-SVG-20010904/DTD/svg10.dtd">
<svg version="1.0" xmlns="http://www.w3.org/2000/svg"
 width="256.000000pt" height="256.000000pt" viewBox="0 0 256.000000 256.000000"
 preserveAspectRatio="xMidYMid meet">
<metadata>
Created by potrace 1.15, written by Peter Selinger 2001-2017
</metadata>
<g transform="translate(0.000000,256.000000) scale(0.100000,-0.100000)"
fill="#000000" stroke="none">
<path d="M80 1865 l0 -255 498 1 c273 0 491 3 484 6 -27 11 -87 127 -106 208
l-8 30 32 -30 c47 -45 103 -134 110 -174 8 -53 32 -50 70 8 38 60 93 111 120
111 26 0 71 -40 115 -105 42 -60 66 -67 71 -22 4 38 44 104 99 163 44 47 45
48 39 19 -9 -45 -69 -170 -93 -194 l-21 -21 495 -2 495 -3 0 258 0 257 -1200
0 -1200 0 0 -255z m1060 235 c-77 -5 -141 -13 -168 -24 -24 -9 -47 -14 -51
-12 -4 3 -70 -16 -147 -42 -76 -27 -146 -47 -155 -45 -8 2 -72 -16 -142 -41
-70 -24 -129 -41 -131 -37 -3 4 -59 -11 -125 -33 -115 -39 -120 -42 -124 -71
-2 -16 -5 48 -5 143 l-2 172 588 -2 c344 -1 535 -4 462 -8z"/>
<path d="M1390 1580 c-25 -10 -47 -16 -50 -15 -3 2 -7 -24 -8 -58 -2 -34 -9
-85 -17 -113 -13 -45 -13 -56 -1 -79 14 -27 13 -41 -6 -81 -7 -16 -6 -40 6
-86 20 -82 21 -222 0 -300 -8 -33 -13 -62 -11 -65 8 -8 82 77 118 137 20 33
40 56 44 52 5 -4 5 -1 1 6 -4 7 -4 21 -1 32 6 20 16 20 511 20 l504 0 0 248 0
247 -504 -3 -505 -2 -7 22 c-16 53 -25 57 -74 38z"/>
<path d="M1207 1551 c-3 -14 -19 -24 -51 -33 -25 -7 -46 -17 -46 -23 0 -5 -4
-3 -9 4 -6 9 -6 22 1 34 5 10 7 21 5 24 -3 2 -8 -5 -12 -16 -5 -17 -15 -21
-53 -23 -45 -1 -46 -2 -9 -5 34 -4 38 -7 33 -26 -3 -12 -6 -26 -6 -30 0 -5 -4
-6 -9 -2 -6 3 -49 -8 -98 -25 -166 -58 -198 -68 -223 -68 -26 0 -32 -2 -335
-107 -176 -62 -245 -85 -253 -85 -2 0 0 4 3 10 4 6 -2 7 -17 1 -17 -6 -24 -18
-28 -47 -3 -21 -7 60 -10 181 l-6 220 -2 -252 -2 -253 505 0 c548 0 510 4 508
-48 -1 -7 1 -11 4 -8 3 3 22 -22 42 -55 35 -60 108 -145 117 -136 2 2 -3 31
-11 63 -21 76 -21 231 -1 304 14 50 14 59 0 97 -15 39 -15 45 0 68 15 23 15
30 2 78 -8 28 -18 79 -21 112 -7 67 -10 75 -18 46z"/>
<path d="M82 698 l-2 -258 1200 0 1200 0 -2 258 -3 257 -2 -252 -3 -253 -1190
0 -1190 0 -3 253 -2 252 -3 -257z"/>
<path d="M308 883 c-68 -72 -112 -136 -148 -217 -26 -57 -60 -168 -60 -195 0
-7 28 -11 78 -11 l79 0 174 233 c168 224 175 232 214 238 22 3 -32 7 -121 8
l-161 1 -55 -57z"/>
</g>
</svg>
